<?xml version="1.0" encoding="UTF-8"?>
<svg id="Layer_2" data-name="Layer 2" xmlns="http://www.w3.org/2000/svg" viewBox="0 0 297.94 189.68">
  <defs>
    <style>
      .cls-1 {
        fill: #fffcea;
      }

      .cls-2 {
        fill: none;
        stroke: #000;
        stroke-miterlimit: 10;
        stroke-width: 13px;
      }
    </style>
  </defs>
  <g id="Layer_1-2" data-name="Layer 1">
    <g>
      <g>
        <polygon class="cls-1" points="6.5 6.5 6.5 143.32 257.21 143.32 291.44 174.85 291.44 143.32 291.44 138.49 291.44 6.5 6.5 6.5"/>
        <polygon class="cls-2" points="6.5 6.5 6.5 143.32 257.21 143.32 291.44 174.85 291.44 143.32 291.44 138.49 291.44 6.5 6.5 6.5"/>
      </g>
      <g>
        <path d="M59.2,44.79l6.87,16.83,6.91-16.74,10.36,5.74-12.66,15.21,19.64-2.49v11.67l-18.69-2.58,12.09,14.25-10.26,5.93-7.58-17.6-6.67,17.21-10.3-6.02,11.82-13.77-18.23,2.58v-11.95l18.99,2.77-12.58-15.11,10.3-5.93Z"/>
        <path d="M124.64,84.89h-8.51l-3.44,14.73h-10.23l3.44-14.73h-7.08l2.1-9.08h7.17l2.39-10.14h-6.89l2.1-9.08h6.98l3.35-13.77h10.14l-3.25,13.77h8.51l3.35-13.77h10.14l-3.25,13.77h6.89l-2.39,9.08h-6.69l-2.39,10.14h6.6l-2.29,9.08h-6.5l-3.44,14.73h-10.23l3.44-14.73ZM118.32,75.81h8.51l2.39-10.14h-8.51l-2.39,10.14Z"/>
        <path d="M185.65,48.27c3.89,0,7.11.54,9.66,1.63,2.55,1.08,4.54,2.5,5.98,4.26,1.43,1.75,2.44,3.78,3.01,6.07.57,2.29.86,4.65.86,7.08,0,2.93-.03,5.45-.1,7.55-.06,2.1-.14,3.92-.24,5.45-.1,1.53-.18,2.82-.24,3.87-.06,1.05-.1,2.02-.1,2.92,0,1.34.06,2.84.19,4.5.13.89.22,1.75.29,2.58h4.3v10.52h-13.01l-1.24-6.5h-.48c-.64.96-1.29,1.88-1.96,2.77-.67.89-1.47,1.67-2.39,2.34-.92.67-1.99,1.2-3.2,1.58-1.21.38-2.68.57-4.4.57-2.29,0-4.37-.42-6.22-1.24-1.85-.83-3.41-1.94-4.69-3.35-1.28-1.4-2.25-3.03-2.92-4.88-.67-1.85-1-3.83-1-5.93,0-5.42,1.56-9.58,4.69-12.48,3.12-2.9,7.43-4.35,12.91-4.35,1.15,0,2.36.06,3.63.19,1.27.13,2.84.26,4.69.38.13-.64.19-1.28.19-1.91v-1.82c0-1.21-.05-2.49-.14-3.83-.09-1.34-.43-2.58-1-3.73-.57-1.15-1.47-2.1-2.68-2.87-1.21-.76-2.93-1.15-5.16-1.15-2.74,0-5.39.54-7.94,1.63-2.55,1.08-4.8,2.76-6.74,5.02-1.95,2.26-3.51,5.13-4.69,8.61-1.18,3.48-1.77,7.6-1.77,12.38,0,3.83.54,7.43,1.63,10.81,1.08,3.38,2.66,6.33,4.73,8.85,2.07,2.52,4.62,4.5,7.65,5.93,3.03,1.43,6.52,2.15,10.47,2.15,1.85,0,3.95-.22,6.31-.67,2.36-.45,4.49-1.12,6.41-2.01l2.96,9.18c-2.62,1.27-5.28,2.17-7.99,2.68-2.71.51-5.82.76-9.32.76-5.48,0-10.31-1-14.49-3.01-4.18-2.01-7.67-4.73-10.47-8.18-2.81-3.44-4.94-7.43-6.41-11.95-1.47-4.53-2.2-9.34-2.2-14.44,0-6.5.96-12.13,2.87-16.88,1.91-4.75,4.43-8.69,7.56-11.81,3.12-3.12,6.61-5.45,10.47-6.98,3.86-1.53,7.76-2.29,11.71-2.29ZM185.46,95.22c2.23,0,4-.56,5.31-1.67,1.31-1.12,2.31-2.31,3.01-3.59v-7.65c-.64-.13-1.59-.27-2.87-.43-1.28-.16-2.65-.24-4.11-.24-1.85,0-3.51.53-4.97,1.58-1.47,1.05-2.2,2.69-2.2,4.93,0,1.79.48,3.41,1.43,4.88.96,1.47,2.42,2.2,4.4,2.2Z"/>
        <path d="M230.69,98.38c0-2.23.7-4,2.1-5.31,1.4-1.31,3.25-1.96,5.55-1.96,2.42,0,4.33.66,5.74,1.96,1.4,1.31,2.1,3.08,2.1,5.31s-.7,4.02-2.1,5.36c-1.4,1.34-3.32,2.01-5.74,2.01-2.29,0-4.14-.67-5.55-2.01s-2.1-3.12-2.1-5.36ZM232.03,37.75h12.81v31.46l-2.49,15.59h-7.84l-2.49-15.59v-31.46Z"/>
      </g>
    </g>
  </g>
</svg>