<?xml version="1.0" encoding="UTF-8"?>
<svg id="Layer_2" data-name="Layer 2" xmlns="http://www.w3.org/2000/svg" viewBox="0 0 278.14 280.37">
  <defs>
    <style>
      .cls-1 {
        fill: #fffcea;
      }
    </style>
  </defs>
  <g id="Layer_1-2" data-name="Layer 1">
    <g>
      <polygon points="112.15 280.37 169.28 186.21 278.14 280.37 212.66 163.99 271.91 147.06 215.84 124.85 258.16 20.1 200.42 76.18 167.17 11.64 157.64 75.12 84.64 0 112.15 85.7 70.89 63.48 93.11 96.28 0 81.47 93.11 140.19 23.28 160.82 98.4 172.46 7.41 223.24 116.38 201.02 112.15 280.37"/>
      <polygon class="cls-1" points="134.51 226.42 169.42 170.34 230.45 225.23 189.52 155.53 226.02 149.18 198.44 130.14 217.03 81.47 180.26 106.86 174.62 74.06 164.13 106.86 122.87 63.48 130.27 107.92 111.23 101.57 123.92 120.61 75.26 113.21 116.52 144.95 87.95 160.82 123.92 163.99 75.26 193.62 134.51 183.04 134.51 226.42"/>
      <polygon points="152.42 184.77 169.04 160.2 195.06 184.77 180.6 150.8 198.63 150.8 184.22 140.19 195.06 111.78 174.82 126.23 170.49 107.44 164.71 125.51 143.03 107.44 153.14 129.12 137.97 121.9 145.92 134.18 120.62 128.4 143.75 144.95 129.3 152.25 143.03 157.31 125.68 169.59 152.42 165.98 152.42 184.77"/>
    </g>
  </g>
</svg>