<?xml version="1.0" encoding="UTF-8"?>
<svg id="Layer_2" data-name="Layer 2" xmlns="http://www.w3.org/2000/svg" viewBox="0 0 249.79 249.79">
  <defs>
    <style>
      .cls-1 {
        fill: #fffcea;
      }
    </style>
  </defs>
  <g id="Layer_1-2" data-name="Layer 1">
    <g>
      <path class="cls-1" d="M124.9,14C63.75,14,14,63.75,14,124.9s49.75,110.9,110.9,110.9,110.9-49.75,110.9-110.9S186.04,14,124.9,14Z"/>
      <g>
        <path d="M124.9,249.79C56.03,249.79,0,193.76,0,124.9S56.03,0,124.9,0s124.9,56.03,124.9,124.9-56.03,124.9-124.9,124.9ZM124.9,14C63.75,14,14,63.75,14,124.9s49.75,110.9,110.9,110.9,110.9-49.75,110.9-110.9S186.04,14,124.9,14Z"/>
        <path d="M82.91,186.77c-1.24,0-2.49-.33-3.62-1.02-3.31-2.01-4.36-6.31-2.35-9.62,4.04-6.65,9.79-12.44,16.64-16.75,12.67-7.97,28.61-10.49,43.73-6.93,14.34,3.38,26.22,11.79,33.45,23.68,2.01,3.3.96,7.61-2.35,9.62-3.3,2.01-7.61.96-9.62-2.35-5.26-8.66-14.03-14.81-24.7-17.32-11.5-2.71-23.55-.83-33.06,5.15-5.02,3.16-9.21,7.36-12.13,12.17-1.32,2.17-3.63,3.37-5.99,3.37Z"/>
        <path d="M161.46,122.58c-4.14,0-8.14-2.12-10.45-5.76-2.31-3.65-2.78-7.53-2.94-10.85-.99-20.86,22.77-27.2,33.03-28.96,3.81-.65,7.43,1.91,8.08,5.72s-1.91,7.43-5.72,8.08c-7.46,1.28-19.46,4.5-21.21,12.13.49-.24,1.01-.42,1.57-.54,3.77-.83,7.51,1.56,8.34,5.34,1.48,6.73-1.49,12.62-7.22,14.34-1.15.34-2.32.51-3.48.51ZM162.84,109.33h.01-.01Z"/>
        <path d="M87.51,122.58c-1.16,0-2.33-.17-3.48-.51-5.72-1.72-8.69-7.61-7.22-14.34.83-3.78,4.56-6.16,8.34-5.34.55.12,1.08.31,1.57.54-1.74-7.63-13.75-10.85-21.21-12.13-3.81-.65-6.37-4.27-5.72-8.08.65-3.81,4.28-6.37,8.08-5.72,10.26,1.76,34.02,8.1,33.03,28.96-.16,3.32-.63,7.2-2.94,10.85-2.31,3.65-6.31,5.77-10.46,5.77Z"/>
      </g>
    </g>
  </g>
</svg>