<?xml version="1.0" encoding="UTF-8"?>
<svg id="Layer_2" data-name="Layer 2" xmlns="http://www.w3.org/2000/svg" viewBox="0 0 232.57 276.24">
  <defs>
    <style>
      .cls-1 {
        fill: #fffcea;
      }
    </style>
  </defs>
  <g id="Layer_1-2" data-name="Layer 1">
    <g>
      <path d="M150.32,76.94c21.92-9.01,40.93,4.2,41.45,27.62,14.42-9.53,35.53,1.01,38.92,17.17,3.37,16.04,1.91,75.18-2.1,91.32-14.14,56.87-66.23,66.06-117.2,62.52-38.43-2.67-63.12-36.12-83.02-65.46C21.53,200.02.64,167.58.04,157.16c-1.05-18.38,18.39-31.14,35.87-25.37,8.89,2.93,12.43,13.43,21.18,15.94v-54.39c0-18.8,29.18-27.34,39.71-16.4V20.82c0-8.85,10.8-20.82,27.74-20.82,20.97,0,25.78,16.76,25.78,19.1v57.84Z"/>
      <path class="cls-1" d="M177.94,145.14c1.04,3.36,8.45,3.69,11.27.9,6.81-6.75-3.74-23.98,9.9-29.8,8.17-3.49,15.51.37,18.17,8.55-.53,47.46,12.3,108.88-42.15,131.49-17.99,7.47-62.42,8.18-80.53,1.56-25.92-9.47-63.43-65.01-75.78-89.97-3.34-6.76-6.92-9.66-2.92-17.32,13.04-24.99,39.53,26.48,49.77,22.29,3.13-1.28,4.9-5.41,5.33-8.62,2.44-18.24.15-51.77.69-68.38,2.31-12.05,25.12-10.62,25.12.95v46.62c0,.86,4.34,4.51,6.13,4.4,2.2.91,7.68-3.14,7.68-4.4V26c0-5.46,7.6-9.58,14.23-9.51,10.38,0,11.67,7.3,11.67,7.78v119.13c0,.86,4.34,4.51,6.13,4.4,2.2.91,7.68-3.14,7.68-4.4v-44.89c0-3.19,1.2-10.83,12.9-11.04,11.33,0,14.72,7.14,14.72,12.77,0,8.93-1.8,39.06,0,44.89Z"/>
    </g>
  </g>
</svg>